<?xml version="1.0" encoding="UTF-8" standalone="no"?>
<!-- Created with Inkscape (http://www.inkscape.org/) -->

<svg id="facebook" width="512.0px" height="512.0px" viewBox="0 0 512.0 512.0" version="1.1"
   sodipodi:docname="facebook.svg" inkscape:version="1.2.2 (732a01da63, 2022-12-09)"
   xmlns:inkscape="http://www.inkscape.org/namespaces/inkscape"
   xmlns:sodipodi="http://sodipodi.sourceforge.net/DTD/sodipodi-0.dtd" xmlns="http://www.w3.org/2000/svg"
   xmlns:svg="http://www.w3.org/2000/svg">
   <sodipodi:namedview id="namedview3466" pagecolor="#ffffff" bordercolor="#000000" borderopacity="0.25"
      inkscape:showpageshadow="2" inkscape:pageopacity="0.0" inkscape:pagecheckerboard="0" inkscape:deskcolor="#d1d1d1"
      inkscape:document-units="px" showgrid="true" inkscape:zoom="0.78127806" inkscape:cx="396.78575"
      inkscape:cy="254.71085" inkscape:window-width="1920" inkscape:window-height="1057" inkscape:window-x="1912"
      inkscape:window-y="263" inkscape:window-maximized="1" inkscape:current-layer="layer1">
      <inkscape:grid type="xygrid" id="grid3472" />
   </sodipodi:namedview>
   <defs id="defs3461" />
   <g inkscape:label="Capa 1" inkscape:groupmode="layer" id="layer1">
      <rect style="fill:#0000ff;stroke-width:0" id="rect3600" width="509.42172" height="511.9816" x="2.5599079" y="0"
         ry="137.22424" />
      <path style="fill:#064a87;stroke-width:0;fill-opacity:1"
         d="M 117.4164,509.44472 C 80.315091,502.64061 47.651467,481.85508 27.310302,452.10562 19.59866,440.82715 11.259023,422.52251 7.3547916,408.30534 L 3.8398621,395.5058 V 255.99081 116.47582 L 7.3547916,103.67628 C 14.078724,79.191222 26.157738,58.178479 43.448063,40.888155 60.738387,23.59783 81.75113,11.518816 106.23618,4.7948835 L 119.03572,1.279954 H 257.27076 395.5058 l 12.79954,3.5149295 c 24.48506,6.7239325 45.49779,18.8029465 62.78812,36.0932715 17.29032,17.290324 29.36933,38.303067 36.09327,62.788125 l 3.51493,12.79954 V 255.99081 395.5058 l -3.51493,12.79954 c -13.47089,49.05398 -49.91371,85.49414 -98.88139,98.8742 l -12.79954,3.49739 -134.39518,0.23659 c -107.25033,0.18879 -136.27337,-0.1079 -143.69422,-1.4688 z"
         id="path3775" />
      <text xml:space="preserve" style="font-size:516.506px;fill:#ffffff;fill-opacity:1;stroke-width:0" x="133.11197"
         y="488.27005" id="text4363" transform="scale(1.112171,0.8991423)">
         <tspan sodipodi:role="line" id="tspan4361" x="133.11197" y="488.27005"
            style="font-size:516.506px;stroke-width:0">f</tspan>
      </text>
   </g>
</svg>