<?xml version="1.0" encoding="UTF-8" standalone="no"?>
<!-- Created with Inkscape (http://www.inkscape.org/) -->

<svg
   width="512.0px"
   height="512.0px"
   viewBox="0 0 512.0 512.0"
   version="1.1"
   id="SVGRoot"
   sodipodi:docname="github.svg"
   inkscape:version="1.2.2 (732a01da63, 2022-12-09)"
   xml:space="preserve"
   xmlns:inkscape="http://www.inkscape.org/namespaces/inkscape"
   xmlns:sodipodi="http://sodipodi.sourceforge.net/DTD/sodipodi-0.dtd"
   xmlns="http://www.w3.org/2000/svg"
   xmlns:svg="http://www.w3.org/2000/svg"><sodipodi:namedview
     id="namedview3466"
     pagecolor="#ffffff"
     bordercolor="#000000"
     borderopacity="0.25"
     inkscape:showpageshadow="2"
     inkscape:pageopacity="0.0"
     inkscape:pagecheckerboard="0"
     inkscape:deskcolor="#d1d1d1"
     inkscape:document-units="px"
     showgrid="true"
     inkscape:zoom="0.78127806"
     inkscape:cx="424.94474"
     inkscape:cy="339.18782"
     inkscape:window-width="1920"
     inkscape:window-height="1057"
     inkscape:window-x="1912"
     inkscape:window-y="263"
     inkscape:window-maximized="1"
     inkscape:current-layer="layer1"><inkscape:grid
       type="xygrid"
       id="grid3472" /></sodipodi:namedview><defs
     id="defs3461" /><g
     inkscape:label="Capa 1"
     inkscape:groupmode="layer"
     id="layer1"><circle
       id="path4556"
       style="fill:#000000;stroke:#000000"
       cx="214.3923"
       cy="380.78632"
       r="0" /><circle
       id="path4558"
       style="fill:#000000;stroke:#000000"
       cx="215.03229"
       cy="380.78632"
       r="0" /><circle
       id="path4560"
       style="fill:#000000;stroke:#000000"
       cx="215.03229"
       cy="412.78519"
       r="0" /><circle
       id="path4562"
       style="fill:#000000;stroke:#000000"
       cx="215.03229"
       cy="380.14636"
       r="0" /><circle
       id="path4564"
       style="fill:#000000;stroke:#000000"
       cx="214.3923"
       cy="412.1452"
       r="0" /><circle
       id="path4655"
       style="fill:#000000;stroke:#000000"
       cx="-444.83905"
       cy="312.24713"
       r="0" /><circle
       id="path4659"
       style="fill:#000000;stroke:#000000"
       cx="-444.83905"
       cy="313.60474"
       r="0" /><circle
       id="path4661"
       style="fill:#000000;stroke:#000000"
       cx="-435.78839"
       cy="321.29779"
       r="0" /><circle
       id="path4663"
       style="fill:#000000;stroke:#000000"
       cx="-426.28522"
       cy="333.06363"
       r="0" /><circle
       id="path4681"
       style="fill:#000000;stroke:none"
       cx="-415.87698"
       cy="290.97812"
       r="0" /><rect
       style="fill:#000000;fill-opacity:1;stroke-width:0"
       id="rect4750"
       width="412.1452"
       height="410.02234"
       x="38.398685"
       y="473.58298"
       ry="205.01117" /><path
       style="fill:#000000;fill-opacity:1;stroke-width:0"
       d="m 73.309546,366.70581 17.512047,12.64089 10.215367,14.53703 5.10773,8.84862 8.75601,15.16907 10.94503,9.48068 15.32306,8.21657 24.07909,2.52817 23.34938,-2.52817 2.18904,3.16023 v 39.18676 l -11.67471,6.95248 145.93381,0.63204 -13.13403,-7.58452 v -84.06193 c 0,0 -6.56702,-17.69725 -13.86371,-22.12155 -7.2967,-4.42432 23.3494,-3.16023 33.56477,-6.32046 10.21538,-3.16023 35.02411,-11.37679 43.78015,-19.59338 8.75602,-8.21658 29.18676,-40.45085 30.64612,-46.77129 1.45933,-6.32046 4.378,-18.96134 4.378,-29.7061 0,-10.74476 -2.189,-33.49836 -5.83736,-39.81879 -3.64833,-6.32047 -18.2417,-25.2818 -18.2417,-25.2818 l -1.45936,-12.64088 c 0,0 6.56702,-3.16023 6.56702,-7.58453 0,-4.42432 -1.45933,-25.91384 -1.45933,-25.91384 0,0 -3.64833,-20.22543 -8.75601,-19.59337 -5.10771,0.63204 -26.99778,3.79226 -26.99778,3.79226 0,0 -35.02412,18.32929 -37.94278,20.85748 -2.91871,2.52816 -20.43073,-4.42433 -42.32081,-5.68841 -21.89007,-1.2641 -29.91646,-1.89613 -42.32081,-0.63204 -12.40439,1.26408 -31.37579,3.16022 -31.37579,3.16022 l -10.21535,4.42431 c 0,0 -59.83287,-33.49836 -66.39991,-24.01769 -6.56703,9.48066 -10.21536,29.70609 -8.75603,34.76245 1.45937,5.05635 -0.72967,9.48066 0,13.90497 0.72969,4.42432 5.10769,11.37681 5.10769,11.37681 0,0 -8.02638,8.21658 -13.13404,16.43315 -5.1077,8.21658 -10.215389,21.48953 -11.674699,32.86632 -1.459356,11.3768 -0.729691,25.91383 0.729629,36.65858 1.459341,10.74477 7.2967,30.97019 17.51209,43.61108 10.21536,12.64089 36.48345,29.07404 45.23947,32.23426 8.75601,3.16023 30.64613,7.58454 35.7538,6.95251 5.10769,-0.63205 10.94502,-0.63205 10.94502,-0.63205 0,0 -13.86369,25.28178 -13.86369,29.70608 0,4.42432 -20.43074,10.11273 -29.91644,8.21659 -9.4857,-1.89614 -26.26809,-4.42431 -29.91644,-10.74476 -3.64833,-6.32044 -16.78239,-21.48952 -20.43074,-24.01768 -3.64834,-2.52818 -15.32307,-10.74476 -22.619749,-12.64091 -7.296683,-1.89612 -17.51205,0 -17.51205,0 0,0 -3.009898,1.50112 -1.732982,3.55526 1.276915,2.05415 2.462651,3.16022 2.462651,3.16022 z"
       id="path4739" /><path
       style="fill:#000000;fill-opacity:1;stroke-width:0"
       d="M 42.389184,509.92731 C 34.432799,508.04446 22.820083,501.20491 17.167289,495.07236 14.29269,491.95379 10.118046,485.5549 7.8903034,480.85263 L 3.8398621,472.30304 V 256.63078 c 0,-210.432255 0.060442,-215.835173 2.4877038,-222.377929 C 11.2823,20.897223 23.457131,8.7223918 36.812759,3.7676578 43.354929,1.3406127 48.74605,1.279954 257.91074,1.279954 h 214.3923 l 8.54959,4.0504413 c 11.89963,5.6375487 19.31136,12.8938977 25.06876,24.5431967 l 4.78027,9.672218 v 216.37862 216.37861 l -4.05044,8.54959 c -5.63741,11.89931 -12.89393,19.31133 -24.54283,25.06876 l -9.67183,4.78027 -212.53913,0.20078 C 134.42301,511.02097 45.322746,510.62152 42.389184,509.92731 Z M 314.22871,485.2201 c 0,-0.28733 -2.59079,-2.15927 -5.75731,-4.15985 -3.16651,-2.00057 -5.6077,-4.08955 -5.42486,-4.64219 0.18285,-0.55263 7.125,-3.28098 15.427,-6.06301 C 431.44566,432.49781 487.94167,308.97875 443.41555,197.19026 416.10004,128.61115 350.43795,79.155987 276.09988,71.171946 171.01485,59.885627 77.193002,124.30642 51.826725,225.16439 c -19.693795,78.3038 8.077571,160.94855 71.011025,211.32153 17.88301,14.31385 43.68325,28.01727 65.1522,34.60462 6.76211,2.07482 12.3011,4.34838 12.30887,5.05236 0.008,0.70397 -2.14585,3.13026 -4.78579,5.39174 l -4.79988,4.1118 61.75778,0.048 c 33.96678,0.0264 61.75778,-0.18704 61.75778,-0.47439 z"
       id="path4808" /></g></svg>
