<?xml version="1.0" encoding="UTF-8" standalone="no"?>
<!-- Created with Inkscape (http://www.inkscape.org/) -->

<svg
   width="512.0px"
   height="512.0px"
   viewBox="0 0 512.0 512.0"
   version="1.1"
   id="SVGRoot"
   sodipodi:docname="instagram.svg"
   inkscape:version="1.2.2 (732a01da63, 2022-12-09)"
   xmlns:inkscape="http://www.inkscape.org/namespaces/inkscape"
   xmlns:sodipodi="http://sodipodi.sourceforge.net/DTD/sodipodi-0.dtd"
   xmlns="http://www.w3.org/2000/svg"
   xmlns:svg="http://www.w3.org/2000/svg">
  <sodipodi:namedview
     id="namedview177"
     pagecolor="#ffffff"
     bordercolor="#000000"
     borderopacity="0.25"
     inkscape:showpageshadow="2"
     inkscape:pageopacity="0.0"
     inkscape:pagecheckerboard="0"
     inkscape:deskcolor="#d1d1d1"
     inkscape:document-units="px"
     showgrid="true"
     inkscape:zoom="1"
     inkscape:cx="375"
     inkscape:cy="243"
     inkscape:window-width="1920"
     inkscape:window-height="1057"
     inkscape:window-x="1912"
     inkscape:window-y="263"
     inkscape:window-maximized="1"
     inkscape:current-layer="layer1">
    <inkscape:grid
       type="xygrid"
       id="grid183" />
  </sodipodi:namedview>
  <defs
     id="defs172" />
  <g
     inkscape:label="Capa 1"
     inkscape:groupmode="layer"
     id="layer1">
    <rect
       style="fill:#ff038a;fill-opacity:1;stroke-width:0"
       id="rect382"
       width="510.4032"
       height="510.45618"
       x="0.95802009"
       y="0.90506446"
       ry="106.70745" />
    <path
       style="fill:#ff038a;fill-opacity:1;stroke-width:0"
       d="m 239.485,374.81314 c -50.14608,-8.91967 -85.94403,-42.87083 -96.92772,-91.9273 -1.55367,-6.93915 -1.79244,-10.04918 -1.74666,-22.75028 0.0755,-20.93548 2.47056,-31.59351 11.17849,-49.74376 6.16638,-12.85279 12.75594,-22.24619 22.45001,-32.00239 15.86959,-15.97131 36.012,-26.82852 59.0925,-31.85219 11.35648,-2.47184 34.46932,-2.46336 45.97741,0.0169 23.23726,5.00811 43.73465,16.34985 59.92212,33.15649 14.65618,15.21679 24.12649,32.15251 29.58054,52.89875 2.14815,8.17122 2.38047,10.28045 2.69438,24.4624 0.38388,17.34279 -0.36257,23.4107 -4.56665,37.12254 -5.60581,18.28361 -14.65006,33.09227 -28.8724,47.2744 -17.13541,17.08696 -35.74736,27.27561 -58.90388,32.24547 -9.1512,1.96404 -31.54528,2.58121 -39.87814,1.099 z"
       id="path2588" />
    <path
       style="fill:#064a87;fill-opacity:1;stroke-width:0"
       d="M 90.764741,509.50529 C 45.849025,502.51151 9.5163434,465.86145 2.705666,420.67698 0.70186659,407.38306 0.70186659,104.88326 2.705666,91.589345 9.5829154,45.963217 45.963217,9.5829154 91.589345,2.705666 c 13.293915,-2.00379944 315.793715,-2.00379944 329.087635,0 45.62613,6.8772494 82.00642,43.257551 88.88368,88.883679 2.00379,13.293915 2.00379,315.793715 0,329.087635 -6.87726,45.62613 -43.25755,82.00642 -88.88368,88.88368 -12.65006,1.90674 -317.63979,1.85556 -329.912239,-0.0554 z M 371.52884,464.41172 c 48.69559,-11.49058 81.77567,-44.87695 92.03075,-92.88288 1.53507,-7.18595 1.6434,-14.73265 1.6434,-114.49061 0,-99.75797 -0.10833,-107.30467 -1.6434,-114.49062 C 453.41353,95.052057 420.04785,60.9803 372.88644,49.955669 364.90065,48.088881 362.70796,48.045579 261.11101,47.748312 145.76363,47.410812 146.43269,47.382354 128.38854,53.393593 109.70427,59.618081 95.064447,68.62573 81.40626,82.301047 63.223302,100.50681 51.565718,124.4444 48.430444,150.01332 c -0.729295,5.94756 -0.932204,38.52199 -0.700495,112.45529 0.357487,114.06684 0.03681,107.13189 5.745978,124.262 9.452369,28.36142 30.943373,53.33137 57.394433,66.6854 13.17701,6.65252 27.40852,10.93627 41.63295,12.5317 1.74225,0.19541 50.20844,0.29015 107.70264,0.21053 96.5352,-0.13371 105.05437,-0.26736 111.32289,-1.74652 z"
       id="path2721" />
    <path
       style="fill:#064a87;fill-opacity:1;stroke-width:0"
       d="m 144.35163,464.28712 c -43.122,-7.97339 -78.438031,-39.46948 -91.801318,-81.87167 -1.679423,-5.32887 -2.669529,-11.12541 -3.246471,-19.00634 -0.45656,-6.23653 -0.841988,-56.40029 -0.856508,-111.47502 -0.0287,-108.8663 -0.143682,-106.09141 5.076322,-122.50991 13.391826,-42.121399 52.708315,-75.347038 94.700225,-80.029414 10.99633,-1.226163 203.66163,-1.29739 216.1722,-0.07992 22.5466,2.194135 48.60014,15.149351 66.41447,33.024828 9.92175,9.955802 16.20433,18.948006 22.61885,32.374086 6.19439,12.96536 9.33663,23.86714 10.50086,36.43196 0.58512,6.315 0.81279,47.85208 0.62256,113.58555 l -0.2999,103.62985 -2.49428,8.9429 c -12.29131,44.06875 -41.43113,72.96444 -86.54396,85.81888 -6.8268,1.94522 -7.27761,1.95376 -115.46126,2.18666 -89.53526,0.19275 -109.8008,0.0132 -115.40179,-1.02244 z"
       id="path3090" />
    <path
       style="fill:#064a87;fill-opacity:1;stroke-width:0"
       d=""
       id="path3092" />
    <path
       style="fill:#064a87;fill-opacity:1;stroke-width:0"
       d="M 142.50358,463.37371 C 109.34054,457.25413 77.29714,432.85833 61.161053,401.44469 55.280913,389.99727 51.523664,378.54674 50.305377,368.36112 49.04192,357.79784 48.967238,157.1209 50.222688,146.16634 51.80798,132.33373 59.013549,114.273 68.637543,100.00959 74.506531,91.311356 87.611064,77.75612 96.692772,70.989462 105.06907,64.748397 118.64476,57.589779 128.16425,54.394191 c 15.42689,-5.178635 13.7088,-5.110272 128.42144,-5.109952 115.94485,3.24e-4 112.95557,-0.128447 129.08132,5.560521 37.80815,13.338247 64.21433,42.211093 75.65766,82.72499 l 2.04512,7.24052 0.26515,111.71259 0.26513,111.71259 -2.83506,9.56601 c -12.47571,42.09519 -37.94593,68.47665 -80.25491,83.12614 l -9.73379,3.37032 -110.87036,0.16825 c -91.43566,0.13876 -112.06796,-0.0528 -117.70237,-1.09246 z"
       id="path3094" />
    <path
       style="fill:#064a87;fill-opacity:1;stroke-width:0"
       d="M 140.60461,462.96816 C 119.02133,458.23712 99.511771,447.41769 82.959706,431 65.563587,413.7451 53.251679,390.49491 50.642602,369.97136 49.228354,358.84659 48.26188,204.09453 49.39372,170 50.180535,146.29869 50.649186,140.86966 52.446332,134.63739 58.980484,111.97782 72.674085,90.890408 90.475822,76.074015 104.48912,64.410744 116.42793,57.926322 133.21592,52.860239 L 142,50.209482 l 59.40427,-0.82477 c 32.67235,-0.453624 84.19735,-0.452064 114.5,0.0035 L 371,50.216413 l 8.95066,2.695563 c 25.26556,7.608929 49.60873,25.059566 63.50692,45.525555 5.72961,8.437219 14.44078,26.830989 17.07896,36.062469 3.39881,11.89309 4.18249,45.59565 3.42942,147.48532 l -0.65769,88.98532 -3.43596,10.51468 c -7.07389,21.64748 -16.96465,37.82069 -31.58127,51.64116 C 415.80278,444.93454 401.53622,453.42127 382,460.66359 L 373,464 260,464.18502 c -93.73397,0.15347 -114.09039,-0.054 -119.39539,-1.21686 z"
       id="path3096" />
  </g>
</svg>
